<svg width="18" height="20" viewBox="0 0 18 20" fill="none" xmlns="http://www.w3.org/2000/svg">
<path d="M16.6498 15.6064C16.5147 16.6097 15.8396 17.4779 14.8944 17.8637C14.4313 18.0564 13.9298 18.1144 13.4282 18.0564C12.946 17.9986 12.4636 17.8442 11.9622 17.5552C11.2676 17.1689 10.5731 16.5711 9.7629 15.6837C11.0362 14.1211 11.8076 12.6935 12.0971 11.4206C12.2322 10.8224 12.2514 10.2822 12.1936 9.78057C12.1165 9.29839 11.9429 8.85457 11.6727 8.46875C11.0747 7.60075 10.0716 7.09911 8.95272 7.09911C7.8338 7.09911 6.83071 7.62002 6.23271 8.46875C5.96252 8.85457 5.78908 9.29839 5.7118 9.78057C5.63471 10.2822 5.65398 10.8417 5.80835 11.4206C6.09762 12.6935 6.88853 14.1404 8.14253 15.7028C7.35162 16.5904 6.6378 17.1884 5.94325 17.5742C5.4418 17.8637 4.95943 18.0181 4.47725 18.0757C3.95634 18.1337 3.4547 18.0564 3.01106 17.883C2.06579 17.4971 1.3907 16.6288 1.25561 15.6257C1.19779 15.1435 1.23633 14.6613 1.42924 14.1211C1.48706 13.928 1.58361 13.7355 1.67997 13.5039C1.81506 13.1953 1.96943 12.8671 2.1236 12.5391L2.14307 12.5008C3.47397 9.62621 4.90162 6.69402 6.38708 3.83911L6.44489 3.7231C6.59926 3.43402 6.75343 3.12548 6.90799 2.83602C7.06216 2.52729 7.2358 2.23783 7.44798 1.98691C7.85307 1.52381 8.39326 1.27309 8.99126 1.27309C9.58926 1.27309 10.1294 1.52381 10.5345 1.98691C10.7467 2.23783 10.9204 2.52729 11.0747 2.83602C11.2291 3.12548 11.3833 3.43402 11.5376 3.7231L11.5956 3.83911C13.0616 6.71329 14.4893 9.64548 15.8204 12.52V12.5391C15.9747 12.8479 16.1096 13.1953 16.264 13.5039C16.3606 13.7355 16.4569 13.928 16.5147 14.1211C16.6691 14.6226 16.7269 15.1051 16.6498 15.6064ZM8.95272 14.6997C7.91108 13.388 7.2358 12.1533 7.00435 11.1119C6.90799 10.668 6.88853 10.2822 6.94653 9.93494C6.98508 9.62621 7.1009 9.35602 7.25507 9.12437C7.62162 8.60404 8.23889 8.27545 8.95272 8.27545C9.66654 8.27545 10.3031 8.58438 10.6504 9.12437C10.8045 9.35602 10.9204 9.62621 10.9589 9.93494C11.0167 10.2822 10.9974 10.6873 10.9011 11.1119C10.6696 12.1342 9.99435 13.3688 8.95272 14.6997ZM17.6529 13.6966C17.5566 13.4651 17.46 13.2144 17.3636 13.0022C17.2093 12.6551 17.0549 12.3269 16.9198 12.0182L16.9006 11.9991C15.5696 9.10529 14.142 6.17311 12.6373 3.27985L12.5795 3.16383C12.4251 2.87437 12.2707 2.56564 12.1165 2.2571C11.9234 1.90963 11.7305 1.54347 11.422 1.196C10.8045 0.424362 9.91726 0 8.97199 0C8.00744 0 7.13944 0.424362 6.50271 1.15765C6.21344 1.50473 6.00126 1.87128 5.80835 2.21875C5.65398 2.52729 5.49962 2.83602 5.34525 3.12548L5.28743 3.24092C3.80217 6.13456 2.35525 9.06694 1.02415 11.9606L1.00488 11.9991C0.869787 12.3077 0.715421 12.6355 0.561055 12.9829C0.464696 13.1953 0.368145 13.4268 0.271787 13.6775C0.0208694 14.3911 -0.0562173 15.0664 0.0401411 15.7608C0.252515 17.2077 1.21706 18.4231 2.54816 18.9631C3.04961 19.1755 3.57052 19.2719 4.11071 19.2719C4.26507 19.2719 4.45798 19.2526 4.61235 19.2331C5.24889 19.1559 5.90471 18.9441 6.54125 18.5773C7.33235 18.1337 8.08472 17.4971 8.93344 16.5711C9.78217 17.4971 10.5538 18.1337 11.3254 18.5773C11.9622 18.9441 12.618 19.1559 13.2545 19.2331C13.4089 19.2526 13.6018 19.2719 13.7562 19.2719C14.2964 19.2719 14.8364 19.1755 15.3187 18.9631C16.6691 18.4231 17.6144 17.1884 17.8266 15.7608C17.9809 15.0855 17.9036 14.4106 17.6529 13.6966Z" fill="black"/>
</svg>
